<?xml version="1.0" encoding="UTF-8"?>
<svg version="1.1" xmlns="http://www.w3.org/2000/svg" width="194" height="195">
<path d="M0 0 C0.75555679 -0.0038269 1.51111359 -0.00765381 2.28956604 -0.01159668 C3.88226662 -0.01430985 5.47501221 -0.00699026 7.06762695 0.00976562 C9.49337146 0.0311571 11.91614478 0.00996257 14.34179688 -0.015625 C15.89453773 -0.01298103 17.44727676 -0.00785462 19 0 C20.07839394 -0.01214539 20.07839394 -0.01214539 21.17857361 -0.02453613 C26.25959079 0.06910731 29.25167554 1.18078314 33.06640625 4.53125 C34.44677734 7.14306641 34.44677734 7.14306641 35.33984375 10.1328125 C35.85816772 11.80754639 35.85816772 11.80754639 36.38696289 13.51611328 C36.7349292 14.7173584 37.08289551 15.91860352 37.44140625 17.15625 C38.02202326 19.06035935 38.60264832 20.96446632 39.18391418 22.86837769 C39.77576193 24.82016548 40.35736486 26.7747369 40.93603516 28.73046875 C42.3018124 33.3227841 43.72047796 37.89755886 45.1418457 42.47290039 C46.80000269 47.82058995 48.43168009 53.17636103 50.06640625 58.53125 C55.85018768 77.57385237 55.85018768 77.57385237 62.05859375 96.48046875 C62.80846982 98.75044244 63.46616837 101.05127575 64.07421875 103.36328125 C64.40164062 104.40871094 64.7290625 105.45414062 65.06640625 106.53125 C67.97742231 107.98675803 70.55957823 107.6963599 73.81103516 107.73657227 C74.8502285 107.75142166 74.8502285 107.75142166 75.91041565 107.76657104 C78.20456503 107.79820497 80.49873514 107.82295086 82.79296875 107.84765625 C84.38195337 107.86822415 85.97093249 107.88922058 87.55990601 107.91062927 C91.7454382 107.96586691 95.93101991 108.01526869 100.11663818 108.06347656 C104.38639745 108.11367926 108.65608467 108.16937174 112.92578125 108.22460938 C121.3059287 108.33221163 129.68613635 108.43365199 138.06640625 108.53125 C138.25876862 107.94654938 138.45113098 107.36184875 138.64932251 106.75942993 C140.07457756 102.45115577 141.53309511 98.16982268 143.15234375 93.9296875 C143.52617187 92.94355469 143.9 91.95742187 144.28515625 90.94140625 C145.04720255 88.94103473 145.81020083 86.94102557 146.57421875 84.94140625 C148.74527328 79.20893009 150.789765 73.45053761 152.71337891 67.63134766 C153.05517937 66.60150505 153.05517937 66.60150505 153.40388489 65.55085754 C153.95897001 63.87795714 154.51281814 62.20464638 155.06640625 60.53125 C153.91461884 60.53791183 152.76283142 60.54457367 151.57614136 60.55143738 C140.71752545 60.61227293 129.85894416 60.65723445 119.00019646 60.68668652 C113.4177019 60.70233717 107.83534501 60.72356473 102.25292969 60.75756836 C96.86480482 60.79018284 91.47681231 60.80810753 86.08859634 60.81588173 C84.03371218 60.82142145 81.97883519 60.83223918 79.92400742 60.84844017 C77.04406879 60.87024198 74.16467594 60.87321574 71.28466797 60.87182617 C70.01259743 60.88800491 70.01259743 60.88800491 68.71482849 60.9045105 C63.76556687 60.87869912 60.34977007 60.29404148 56.06640625 57.53125 C54.53793964 54.47431678 54.8339818 51.90140453 55.06640625 48.53125 C56.82655756 45.3462143 57.56531541 44.69828028 61.06640625 43.53125 C62.53983798 43.43640975 64.0171515 43.39638759 65.49362183 43.39080811 C66.39924866 43.38509796 67.30487549 43.37938782 68.23794556 43.37350464 C69.22918427 43.37238678 70.22042297 43.37126892 71.24169922 43.37011719 C72.28749146 43.36515228 73.33328369 43.36018738 74.4107666 43.35507202 C77.87671563 43.34044482 81.3426189 43.33364778 84.80859375 43.328125 C87.21371462 43.32237444 89.61883547 43.31661669 92.0239563 43.31085205 C97.06952122 43.30034077 102.1150702 43.29449879 107.16064453 43.29101562 C113.62946559 43.28552772 120.09807649 43.26149368 126.56683159 43.23304367 C131.53562031 43.21443188 136.50435823 43.20921248 141.47317886 43.20767975 C143.8582283 43.20464989 146.24327678 43.19661021 148.62829208 43.18349457 C151.96313283 43.16646339 155.29745778 43.16830728 158.63232422 43.17480469 C159.61951447 43.1655899 160.60670471 43.15637512 161.62380981 43.1468811 C170.16603318 43.19908641 170.16603318 43.19908641 174.06640625 46.53125 C175.72870001 49.85238938 176.20885893 51.74264161 175.54663086 55.40869141 C175.19093018 56.39015137 174.83522949 57.37161133 174.46875 58.3828125 C174.07880859 59.48238281 173.68886719 60.58195312 173.28710938 61.71484375 C172.86365234 62.85050781 172.44019531 63.98617187 172.00390625 65.15625 C171.60751953 66.26871094 171.21113281 67.38117188 170.80273438 68.52734375 C168.45696574 75.03789385 165.88623556 81.42906897 163.19360352 87.80273438 C161.67470284 91.4794149 160.35071046 95.20510826 159.06640625 98.96875 C158.55822461 100.41959795 158.04909837 101.87011536 157.5390625 103.3203125 C156.81808462 105.37662596 156.09985652 107.43354703 155.39404297 109.49511719 C154.77889729 111.28319039 154.14192106 113.06370869 153.50390625 114.84375 C153.15199219 115.85050781 152.80007812 116.85726562 152.4375 117.89453125 C150.71001128 121.21662495 149.24343945 122.52367365 146.06640625 124.53125 C143.05587485 124.91872939 140.41481933 125.07901764 137.40820312 125.04882812 C136.54743668 125.0558374 135.68667023 125.06284668 134.79981995 125.07006836 C131.96126825 125.08763935 129.12371767 125.07602888 126.28515625 125.0625 C124.30887664 125.06519517 122.33259832 125.06907781 120.35632324 125.07409668 C116.21707518 125.07999051 112.0781727 125.07143238 107.93896484 125.05273438 C102.63585655 125.029945 97.33355802 125.04306868 92.03047943 125.06702423 C87.95035715 125.08148524 83.87042654 125.0768748 79.79029846 125.06651306 C77.83508712 125.06384662 75.87985831 125.06711263 73.92466736 125.07643127 C71.19084649 125.08660179 68.45833298 125.07108901 65.72460938 125.04882812 C64.91822525 125.05692505 64.11184113 125.06502197 63.28102112 125.07336426 C59.50871037 125.0165191 57.30553002 124.68439028 54.09729004 122.62976074 C51.94958231 120.41053591 51.0801935 118.94663778 50.12890625 116.03125 C49.80277344 115.04640625 49.47664063 114.0615625 49.140625 113.046875 C47.63496429 108.11925814 46.15065311 103.185657 44.69287109 98.24365234 C42.54413745 90.99968665 40.23599018 83.81136859 37.89584351 76.62747192 C34.18586715 65.23510195 30.57785918 53.81800808 27.12890625 42.34375 C26.76369873 41.13412598 26.39849121 39.92450195 26.0222168 38.67822266 C23.83180638 31.34139616 21.85320751 23.97668005 20.06640625 16.53125 C19.17332764 16.54696045 18.28024902 16.5626709 17.36010742 16.57885742 C14.04461869 16.63000439 10.7295495 16.66760812 7.41381836 16.69604492 C5.97918073 16.71112589 4.54458917 16.7315938 3.11010742 16.75756836 C1.04724766 16.79398437 -1.01500233 16.81098243 -3.078125 16.82421875 C-4.31925049 16.8399292 -5.56037598 16.85563965 -6.83911133 16.87182617 C-9.93359375 16.53125 -9.93359375 16.53125 -11.83276367 15.14550781 C-13.26623756 13.04346093 -13.3994105 11.6275835 -13.43359375 9.09375 C-13.48 7.95099609 -13.48 7.95099609 -13.52734375 6.78515625 C-11.82587775 0.32630176 -5.70279346 -0.06404724 0 0 Z " fill="#32744B" transform="translate(15.93359375,25.46875)"/>
<path d="M0 0 C2.24913576 2.24913576 1.18535133 7.48326691 1.1875 10.5 C1.19974609 11.37398437 1.21199219 12.24796875 1.22460938 13.1484375 C1.2551702 26.88043477 -2.9464228 38.79482606 -12.66015625 48.69140625 C-20.28965177 55.62573134 -27.87916775 57.71802791 -38 59 C-38.66 57.68 -39.32 56.36 -40 55 C-40.33 55.66 -40.66 56.32 -41 57 C-42 58 -42 58 -44.5625 58.0625 C-45.366875 58.041875 -46.17125 58.02125 -47 58 C-50.8095969 51.57984267 -49.55657236 43.34137996 -47.8125 36.375 C-43.38282935 21.96297297 -35.39726475 12.94913138 -22.1875 5.8125 C-15.4852891 2.65288629 -7.49739652 -0.59438819 0 0 Z M-32 35 C-31 37 -31 37 -31 37 Z M-34 38 C-33 40 -33 40 -33 40 Z M-35 40 C-35.33 41.32 -35.66 42.64 -36 44 C-35.34 43.67 -34.68 43.34 -34 43 C-34.33 42.01 -34.66 41.02 -35 40 Z M-37 44 C-37.33 45.65 -37.66 47.3 -38 49 C-37.34 48.34 -36.68 47.68 -36 47 C-36.33 46.01 -36.66 45.02 -37 44 Z " fill="#59A142" transform="translate(153,5)"/>
<path d="M0 0 C4.24682027 3.55547743 7.38026853 6.81727919 7.890625 12.51953125 C8.00607551 18.78272153 7.52882089 22.96669586 3.28125 27.875 C-1.25001362 32.32076808 -5.97886533 34.08070473 -12.3125 34.25 C-18.24631626 33.49226447 -22.27658253 30.20209539 -25.95703125 25.62890625 C-28.70206329 20.81125636 -29.02893302 15.54188621 -27.859375 10.16796875 C-25.8390679 4.77656781 -21.98715349 1.36643566 -17.3125 -1.75 C-11.44279976 -3.64902067 -5.36813624 -2.8359965 0 0 Z " fill="#31744B" transform="translate(161.3125,159.75)"/>
<path d="M0 0 C4.50589739 4.19153246 7.88991672 9.26725101 8.25 15.5625 C7.39025946 21.58068375 5.38953977 26.26770905 0.8125 30.375 C-4.20424223 33.78638472 -8.10645747 35.11767375 -14.2265625 34.09765625 C-19.61120624 32.55486506 -23.30169239 29.73823932 -26.8125 25.4375 C-29.25168058 20.40531663 -29.26888894 14.92193427 -28.3125 9.5 C-25.91314878 4.50998716 -22.40584567 0.77860201 -17.3125 -1.5 C-11.47655564 -3.32991476 -5.50046232 -2.49077539 0 0 Z " fill="#2D7249" transform="translate(87.3125,159.5)"/>
<path d="M0 0 C6.94478621 0.25532302 13.33546442 0.63410249 19 5 C22.67695039 9.05427936 25.80929429 12.90223722 26.3125 18.4375 C26 22 26 22 24.3125 23.875 C20.39161529 25.78245742 17.97390242 26.16231707 13.625 25.4375 C6.89200734 22.76752015 2.66033072 18.64199413 -0.28125 12.0234375 C-1.35815951 8.99170313 -1.87409529 6.21057015 -2 3 C-1.34 2.01 -0.68 1.02 0 0 Z " fill="#5AA043" transform="translate(75,37)"/>
<path d="M0 0 C35.64 0 71.28 0 108 0 C108 0.66 108 1.32 108 2 C97.75759088 2.13234544 87.51515987 2.2628411 77.27269936 2.39115143 C72.51365656 2.45082373 67.75462263 2.51106832 62.99560547 2.57275391 C41.99625067 2.84453443 21.00155476 3.0974324 0 3 C0 2.01 0 1.02 0 0 Z " fill="#739777" transform="translate(77,69)"/>
<path d="M0 0 C29.7 0 59.4 0 90 0 C90 0.99 90 1.98 90 3 C60.63 3 31.26 3 1 3 C0.67 2.01 0.34 1.02 0 0 Z " fill="#4C7452" transform="translate(72,147)"/>
<path d="M0 0 C4.50876292 4.19419807 7.45675792 8.86954032 8 15.0625 C7.896875 15.866875 7.79375 16.67125 7.6875 17.5 C7.3575 17.5 7.0275 17.5 6.6875 17.5 C6.6875 15.85 6.6875 14.2 6.6875 12.5 C5.0375 12.5 3.3875 12.5 1.6875 12.5 C1.56632812 11.87351563 1.44515625 11.24703125 1.3203125 10.6015625 C1.15273437 9.78429687 0.98515625 8.96703125 0.8125 8.125 C0.65007812 7.31289062 0.48765625 6.50078125 0.3203125 5.6640625 C-0.17908932 3.31326077 -0.17908932 3.31326077 -2.3125 1.5 C-5.26767192 1.14079034 -5.26767192 1.14079034 -8.625 1.1875 C-9.75550781 1.17074219 -10.88601562 1.15398437 -12.05078125 1.13671875 C-15.62343322 1.53463089 -17.48959581 2.30440785 -20.3125 4.5 C-20.6425 5.49 -20.9725 6.48 -21.3125 7.5 C-22.2918879 8.52019573 -23.29145449 9.52149805 -24.3125 10.5 C-25.48923198 12.85346396 -25.47873866 14.3806033 -25.5 17 C-25.51417969 17.7940625 -25.52835938 18.588125 -25.54296875 19.40625 C-25.50916303 21.72033317 -25.50916303 21.72033317 -23.3125 23.5 C-22.91485737 25.48821313 -22.57474651 27.48944339 -22.3125 29.5 C-25.88808253 26.16278964 -27.98980459 23.67198831 -28.71875 18.765625 C-28.92384646 12.16835553 -28.39866755 8.08316531 -23.96484375 3.0546875 C-17.04263427 -3.45840794 -8.47908189 -3.83958425 0 0 Z " fill="#487553" transform="translate(87.3125,159.5)"/>
<path d="M0 0 C0.66 0 1.32 0 2 0 C2.3125 2.625 2.3125 2.625 2 6 C0.38405168 8.04119788 -1.2856382 10.04072937 -3 12 C-4.25 14.91666667 -4.25 14.91666667 -5 18 C-5.37329112 19.29216157 -5.74829995 20.58382811 -6.125 21.875 C-6.41375 22.90625 -6.7025 23.9375 -7 25 C-6.34 24.67 -5.68 24.34 -5 24 C-2.9625237 23.77141886 -0.91959697 23.58975722 1.125 23.4375 C2.22070312 23.35371094 3.31640625 23.26992188 4.4453125 23.18359375 C5.28835937 23.12300781 6.13140625 23.06242187 7 23 C3.72327085 25.90292752 1.04717391 26.58029064 -3.25 27.1875 C-4.32765625 27.34605469 -5.4053125 27.50460938 -6.515625 27.66796875 C-7.33546875 27.77753906 -8.1553125 27.88710938 -9 28 C-10.1640625 26.45703125 -10.1640625 26.45703125 -11 24 C-10.25705715 21.39375649 -9.45279774 19.14790254 -8.375 16.6875 C-8.11332031 16.04876953 -7.85164063 15.41003906 -7.58203125 14.75195312 C-5.70955793 10.28786818 -3.45508636 6.16950321 -1 2 C-0.67 1.34 -0.34 0.68 0 0 Z " fill="#6C9D55" transform="translate(124,36)"/>
<path d="M0 0 C2.52588702 2.36292656 3.88820837 3.66462511 5 7 C4.67 7.66 4.34 8.32 4 9 C3.34 9 2.68 9 2 9 C2.66 10.32 3.32 11.64 4 13 C4.99 12.67 5.98 12.34 7 12 C7 13.32 7 14.64 7 16 C1.82421875 19.22265625 1.82421875 19.22265625 0 20 C-0.99 19.67 -1.98 19.34 -3 19 C-3 18.34 -3 17.68 -3 17 C-1.68 17 -0.36 17 1 17 C1 16.34 1 15.68 1 15 C0.01 15 -0.98 15 -2 15 C-3.6112798 9.28728072 -2.08989546 5.31329355 0 0 Z " fill="#5A9C42" transform="translate(91,42)"/>
<path d="M0 0 C1.66611905 -0.042721 3.33382885 -0.04063832 5 0 C7.24913576 2.24913576 6.18535133 7.48326691 6.1875 10.5 C6.19974609 11.37398437 6.21199219 12.24796875 6.22460938 13.1484375 C6.24022643 20.16570183 5.97501696 27.03747456 2 33 C2.0721875 32.35417969 2.144375 31.70835938 2.21875 31.04296875 C2.88058361 24.32351918 3.16326624 17.62301381 3.25 10.875 C3.2819043 9.61272583 3.2819043 9.61272583 3.31445312 8.32495117 C3.36509494 5.67030374 3.36509494 5.67030374 3 2 C2.01 1.34 1.02 0.68 0 0 Z " fill="#74A45D" transform="translate(148,5)"/>
<path d="M0 0 C0.33 0 0.66 0 1 0 C0.67 2.64 0.34 5.28 0 8 C0.66 8 1.32 8 2 8 C2.33 8.66 2.66 9.32 3 10 C5.8163809 10.47167268 5.8163809 10.47167268 9.22265625 10.6328125 C10.48271484 10.71660156 11.74277344 10.80039062 13.04101562 10.88671875 C14.38149822 10.96635138 15.72199321 11.04577574 17.0625 11.125 C18.4069576 11.21136357 19.75135995 11.29859195 21.09570312 11.38671875 C24.39668849 11.59968555 27.69798811 11.80370339 31 12 C31 12.33 31 12.66 31 13 C26.92497206 13.07420211 22.85020608 13.1286257 18.7746582 13.16479492 C17.38852081 13.17987397 16.00243106 13.2003405 14.61645508 13.22631836 C12.62341854 13.26273716 10.63003277 13.27813018 8.63671875 13.29296875 C7.43748779 13.3086792 6.23825684 13.32438965 5.00268555 13.34057617 C2 13 2 13 0.10571289 11.62084961 C-1.3777129 9.44631575 -1.33500181 7.98455545 -1.25 5.375 C-1.23453125 4.57835937 -1.2190625 3.78171875 -1.203125 2.9609375 C-1 1 -1 1 0 0 Z " fill="#648764" transform="translate(4,29)"/>
<path d="M0 0 C0 0.66 0 1.32 0 2 C-7.28571429 5.42857143 -7.28571429 5.42857143 -12 5 C-12 5.66 -12 6.32 -12 7 C-14.64 7.33 -17.28 7.66 -20 8 C-20.33 8.99 -20.66 9.98 -21 11 C-21.99 10.34 -22.98 9.68 -24 9 C-16.68869235 4.5951628 -8.70251207 0 0 0 Z " fill="#7FAA62" transform="translate(148,6)"/>
<path d="M0 0 C1.75070517 0.11470137 3.50057536 0.24219028 5.25 0.375 C6.22453125 0.44460937 7.1990625 0.51421875 8.203125 0.5859375 C10.89633189 0.98465249 12.66963279 1.63507063 15 3 C15 3.33 15 3.66 15 4 C11 4 7 4 3 4 C2.67 4.66 2.34 5.32 2 6 C1.34 6 0.68 6 0 6 C-0.33 7.32 -0.66 8.64 -1 10 C-2.25 3.375 -2.25 3.375 0 0 Z " fill="#83AC64" transform="translate(75,37)"/>
<path d="M0 0 C0.66 0 1.32 0 2 0 C2.3125 2.625 2.3125 2.625 2 6 C0.38405168 8.04119788 -1.2856382 10.04072937 -3 12 C-3.350625 13.093125 -3.70125 14.18625 -4.0625 15.3125 C-4.5265625 16.6428125 -4.5265625 16.6428125 -5 18 C-7.05859375 18.66796875 -7.05859375 18.66796875 -9 19 C-8.23419309 17.10213071 -7.46212423 15.20678756 -6.6875 13.3125 C-6.04361328 11.72888672 -6.04361328 11.72888672 -5.38671875 10.11328125 C-4.10815185 7.24280852 -2.6633087 4.6603621 -1 2 C-0.67 1.34 -0.34 0.68 0 0 Z " fill="#7FAE67" transform="translate(124,36)"/>
<path d="M0 0 C3.9 3.9 3.9 3.9 4.3125 8.4375 C4 12 4 12 2.3125 13.875 C-0.14018982 15.06820046 -2.30513023 15.62571253 -5 16 C-4.25 14.0625 -4.25 14.0625 -3 12 C-1.68 11.67 -0.36 11.34 1 11 C0.67 7.37 0.34 3.74 0 0 Z " fill="#7AA468" transform="translate(97,47)"/>
<path d="M0 0 C0.73839111 0.01571045 1.47678223 0.0314209 2.23754883 0.04760742 C3.03999023 0.05727539 3.84243164 0.06694336 4.66918945 0.0769043 C5.50256836 0.10204102 6.33594727 0.12717773 7.19458008 0.15307617 C8.46205078 0.17337891 8.46205078 0.17337891 9.75512695 0.1940918 C11.83938392 0.22941819 13.92331285 0.28322478 16.00708008 0.34057617 C16.00708008 1.00057617 16.00708008 1.66057617 16.00708008 2.34057617 C13.36708008 3.00057617 10.72708008 3.66057617 8.00708008 4.34057617 C8.00708008 3.68057617 8.00708008 3.02057617 8.00708008 2.34057617 C1.57208008 2.83557617 1.57208008 2.83557617 -4.99291992 3.34057617 C-1.99291992 0.34057617 -1.99291992 0.34057617 0 0 Z " fill="#5F7D66" transform="translate(9.992919921875,25.659423828125)"/>
<path d="M0 0 C3.29097902 0.56741018 4.90253433 1.3898205 7 4 C7.51171875 6.26171875 7.51171875 6.26171875 7.6875 8.6875 C7.75324219 9.49574219 7.81898437 10.30398437 7.88671875 11.13671875 C7.92410156 11.75160156 7.96148437 12.36648437 8 13 C7.34 13 6.68 13 6 13 C5.67 13.66 5.34 14.32 5 15 C4.01 14.34 3.02 13.68 2 13 C2.33 12.01 2.66 11.02 3 10 C3.66 10 4.32 10 5 10 C5 8.35 5 6.7 5 5 C4.01 4.67 3.02 4.34 2 4 C0.8125 1.9375 0.8125 1.9375 0 0 Z " fill="#5E9C46" transform="translate(90,41)"/>
<path d="M0 0 C0.99 0.33 1.98 0.66 3 1 C2.67 1.66 2.34 2.32 2 3 C2.66 2.34 3.32 1.68 4 1 C4.66 0.67 5.32 0.34 6 0 C6.99 0.66 7.98 1.32 9 2 C8.01 3.485 8.01 3.485 7 5 C6.34 4.67 5.68 4.34 5 4 C5.185625 4.53625 5.37125 5.0725 5.5625 5.625 C6.11419324 8.61990614 5.60597444 11.03745829 5 14 C3.38274466 10.99049877 2.32417377 8.02896392 1.375 4.75 C0.98441406 3.41195312 0.98441406 3.41195312 0.5859375 2.046875 C0.39257812 1.37140625 0.19921875 0.6959375 0 0 Z " fill="#538462" transform="translate(38,50)"/>
<path d="M0 0 C0.33 0 0.66 0 1 0 C1.31289083 6.57070734 0.77898141 11.9703752 -2 18 C-2.66 18.66 -3.32 19.32 -4 20 C-4.45660389 13.15094166 -3.08572814 6.17145629 0 0 Z " fill="#82AE6E" transform="translate(108,34)"/>
<path d="M0 0 C0.5625 1.9375 0.5625 1.9375 1 4 C0.67 4.33 0.34 4.66 0 5 C-0.19130096 9.78252409 0.22973357 14.28211812 1 19 C0.34 19.33 -0.32 19.66 -1 20 C-3.15614876 14.16571511 -3.32347537 9.10506378 -2 3 C-1.34 2.01 -0.68 1.02 0 0 Z " fill="#5A815F" transform="translate(136,165)"/>
<path d="M0 0 C0.99 0 1.98 0 3 0 C8.74031891 9.22551253 8.74031891 9.22551253 8 15 C7.67 15 7.34 15 7 15 C7 13.35 7 11.7 7 10 C5.35 10 3.7 10 2 10 C1.34 6.7 0.68 3.4 0 0 Z " fill="#507D5B" transform="translate(87,162)"/>
<path d="M0 0 C3.125 2.0625 3.125 2.0625 5 4 C4.24976563 3.75443359 4.24976563 3.75443359 3.484375 3.50390625 C0.0736532 2.8121089 -3.28735757 2.89495335 -6.75 2.9375 C-7.44738281 2.94201172 -8.14476563 2.94652344 -8.86328125 2.95117188 C-10.57555803 2.9628998 -12.28779033 2.98083347 -14 3 C-14 2.01 -14 1.02 -14 0 C-9.27032047 -1.43091921 -4.79250305 -1.03747239 0 0 Z " fill="#6B8E71" transform="translate(84,158)"/>
<path d="M0 0 C2.97 0.99 5.94 1.98 9 3 C9 3.66 9 4.32 9 5 C9.598125 5.103125 10.19625 5.20625 10.8125 5.3125 C13.29983964 6.09423531 14.24696028 7.1264074 16 9 C9.1690173 8.10159411 4.67919979 6.16066086 0 1 C0 0.67 0 0.34 0 0 Z " fill="#5D8766" transform="translate(136,185)"/>
<path d="M0 0 C3 1 3 1 4.140625 2.7734375 C5.04007161 5.10382191 5.46809924 7.14593158 5.75 9.625 C5.84796875 10.40101563 5.9459375 11.17703125 6.046875 11.9765625 C6 14 6 14 4 16 C2.68 10.72 1.36 5.44 0 0 Z " fill="#5B8466" transform="translate(62,126)"/>
<path d="M0 0 C0.33 0 0.66 0 1 0 C1.12117188 0.84304687 1.24234375 1.68609375 1.3671875 2.5546875 C1.53476562 3.65039062 1.70234375 4.74609375 1.875 5.875 C2.03742187 6.96554688 2.19984375 8.05609375 2.3671875 9.1796875 C2.76256513 12.11932714 2.76256513 12.11932714 5 14 C5.39764263 15.98821313 5.73775349 17.98944339 6 20 C2.29442484 16.54146318 0.13938988 14.1521798 -0.1953125 8.984375 C-0.17210937 7.91703125 -0.14890625 6.8496875 -0.125 5.75 C-0.10695312 4.67234375 -0.08890625 3.5946875 -0.0703125 2.484375 C-0.04710937 1.66453125 -0.02390625 0.8446875 0 0 Z " fill="#688964" transform="translate(59,169)"/>
<path d="M0 0 C2.48020497 0.11341491 4.95844969 0.24014686 7.4375 0.375 C8.14455078 0.4059375 8.85160156 0.436875 9.58007812 0.46875 C11.39239188 0.57280629 13.19817988 0.77919892 15 1 C15.33 1.66 15.66 2.32 16 3 C9.525862 4.27170568 6.02341941 3.68902652 0 1 C0 0.67 0 0.34 0 0 Z " fill="#698E70" transform="translate(67,190)"/>
<path d="M0 0 C0.66 0 1.32 0 2 0 C1.38517439 3.37774562 0.14304154 5.47618303 -1.9375 8.1875 C-2.72447266 9.22970703 -2.72447266 9.22970703 -3.52734375 10.29296875 C-5 12 -5 12 -7 13 C-6.35952602 9.55251042 -5.00294981 7.15355815 -3.0625 4.25 C-2.53785156 3.45078125 -2.01320312 2.6515625 -1.47265625 1.828125 C-0.74369141 0.92320313 -0.74369141 0.92320313 0 0 Z " fill="#7EA866" transform="translate(147,40)"/>
<path d="M0 0 C2.15827162 3.23740742 2.73320331 4.24233303 2 8 C-1 10.3125 -1 10.3125 -4 12 C-3.52309796 10.37433394 -3.04340334 8.74948689 -2.5625 7.125 C-2.29566406 6.22007813 -2.02882812 5.31515625 -1.75390625 4.3828125 C-1 2 -1 2 0 0 Z " fill="#598361" transform="translate(166,101)"/>
<path d="M0 0 C0 0.33 0 0.66 0 1 C-5.61 1.66 -11.22 2.32 -17 3 C-11.79210783 -2.20789217 -6.81747159 -0.96543715 0 0 Z " fill="#68906A" transform="translate(158,158)"/>
<path d="M0 0 C0.66 0.99 1.32 1.98 2 3 C0.85675161 4.0029542 -0.28967191 5.00229027 -1.4375 6 C-2.39462891 6.8353125 -2.39462891 6.8353125 -3.37109375 7.6875 C-5 9 -5 9 -6 9 C-6 7.35 -6 5.7 -6 4 C-4.35 4 -2.7 4 -1 4 C-0.67 2.68 -0.34 1.36 0 0 Z " fill="#4A7A56" transform="translate(164,183)"/>
<path d="M0 0 C2 1 2 1 2.88671875 3.14453125 C3.28310547 4.46517578 3.28310547 4.46517578 3.6875 5.8125 C3.95949219 6.68519531 4.23148437 7.55789062 4.51171875 8.45703125 C5.01319861 11.06873834 4.86233704 12.51716384 4 15 C1.81257986 11.7188698 1.45557194 9.66915644 0.875 5.8125 C0.70742187 4.72582031 0.53984375 3.63914062 0.3671875 2.51953125 C0.24601562 1.68808594 0.12484375 0.85664062 0 0 Z " fill="#5D8265" transform="translate(65,86)"/>
<path d="M0 0 C3.375 0.75 3.375 0.75 7 2 C8.25 4.0625 8.25 4.0625 9 6 C9.99 6.33 10.98 6.66 12 7 C6.376883 6.59834879 3.95408944 4.76579946 0 1 C0 0.67 0 0.34 0 0 Z " fill="#80A860" transform="translate(79,55)"/>
<path d="M0 0 C1 2 1 2 0.22265625 4.8203125 C-0.16019531 5.91085938 -0.54304687 7.00140625 -0.9375 8.125 C-1.31777344 9.22070312 -1.69804687 10.31640625 -2.08984375 11.4453125 C-2.39019531 12.28835937 -2.69054687 13.13140625 -3 14 C-3.33 14 -3.66 14 -4 14 C-3.67 10.7 -3.34 7.4 -3 4 C-2.34 4 -1.68 4 -1 4 C-0.67 2.68 -0.34 1.36 0 0 Z " fill="#6D9171" transform="translate(177,114)"/>
<path d="M0 0 C0.99 0.33 1.98 0.66 3 1 C3.66 4.3 4.32 7.6 5 11 C4.01 11.495 4.01 11.495 3 12 C2.01 8.04 1.02 4.08 0 0 Z " fill="#638767" transform="translate(51,91)"/>
<path d="M0 0 C0.99 0.33 1.98 0.66 3 1 C2.67 2.32 2.34 3.64 2 5 C0.68 5.33 -0.64 5.66 -2 6 C-2.33 5.01 -2.66 4.02 -3 3 C-2.01 2.01 -1.02 1.02 0 0 Z " fill="#497855" transform="translate(85,186)"/>
<path d="M0 0 C1.32 0.33 2.64 0.66 4 1 C2.68 3.31 1.36 5.62 0 8 C-0.66 8 -1.32 8 -2 8 C-1.34 5.36 -0.68 2.72 0 0 Z " fill="#5E865E" transform="translate(160,116)"/>
<path d="M0 0 C0.66 0 1.32 0 2 0 C2.17835515 4.54805635 1.99785435 7.8794254 0 12 C-0.33 12 -0.66 12 -1 12 C-0.67 8.04 -0.34 4.08 0 0 Z " fill="#7EA764" transform="translate(151,26)"/>
<path d="M0 0 C0.66 0 1.32 0 2 0 C2.66 2.97 3.32 5.94 4 9 C3.34 9 2.68 9 2 9 C0.14223235 5.86501708 -0.20140476 3.62528568 0 0 Z " fill="#55815F" transform="translate(74,116)"/>
<path d="M0 0 C0 0.66 0 1.32 0 2 C-0.66 2 -1.32 2 -2 2 C-2.103125 2.639375 -2.20625 3.27875 -2.3125 3.9375 C-2.539375 4.618125 -2.76625 5.29875 -3 6 C-3.99 6.33 -4.98 6.66 -6 7 C-6.33 6.01 -6.66 5.02 -7 4 C-2.25 0 -2.25 0 0 0 Z " fill="#82A96C" transform="translate(124,16)"/>
<path d="M0 0 C-0.33 0.99 -0.66 1.98 -1 3 C-2.65 3 -4.3 3 -6 3 C-6.33 2.01 -6.66 1.02 -7 0 C-3.98968256 -0.93423645 -3.13349732 -1.04449911 0 0 Z " fill="#6A9657" transform="translate(112,60)"/>
<path d="M0 0 C2 2 2 2 2 5 C3.98 5 5.96 5 8 5 C8 5.33 8 5.66 8 6 C5.69 6.33 3.38 6.66 1 7 C-0.0625 5.1875 -0.0625 5.1875 -1 3 C-0.67 2.01 -0.34 1.02 0 0 Z " fill="#86A875" transform="translate(114,57)"/>
<path d="M0 0 C0 0.99 0 1.98 0 3 C-2.31 3 -4.62 3 -7 3 C-7.33 2.34 -7.66 1.68 -8 1 C-5.23735711 0.40267181 -2.83967231 0 0 0 Z " fill="#427451" transform="translate(156,82)"/>
<path d="M0 0 C0.33 0.66 0.66 1.32 1 2 C0.0625 4.625 0.0625 4.625 -1 7 C-1.99 6.67 -2.98 6.34 -4 6 C-2.25 1.125 -2.25 1.125 0 0 Z " fill="#7CAD6B" transform="translate(115,49)"/>
<path d="M0 0 C3.82097239 0.53069061 6.06171403 1.49701566 9 4 C8.67 4.66 8.34 5.32 8 6 C6.66402348 5.19185349 5.331275 4.37836819 4 3.5625 C3.2575 3.11003906 2.515 2.65757813 1.75 2.19140625 C1.1725 1.79824219 0.595 1.40507812 0 1 C0 0.67 0 0.34 0 0 Z " fill="#4A8151" transform="translate(40,26)"/>
<path d="M0 0 C0.99 0 1.98 0 3 0 C3.66 1.65 4.32 3.3 5 5 C4.34 5.66 3.68 6.32 3 7 C2.01 4.69 1.02 2.38 0 0 Z " fill="#457751" transform="translate(87,162)"/>
<path d="M0 0 C2.88575819 0.39803561 3.82189513 0.79009069 5.75 3.0625 C6.1625 3.701875 6.575 4.34125 7 5 C4.625 4.75 4.625 4.75 2 4 C0.6875 1.9375 0.6875 1.9375 0 0 Z " fill="#83B26D" transform="translate(90,41)"/>
</svg>
